<svg width="729" height="149" viewBox="0 0 729 149" version="1.1" xmlns="http://www.w3.org/2000/svg" xmlns:xlink="http://www.w3.org/1999/xlink">
<title>logo_BW_long_w</title>
<desc>Created using Figma</desc>
<g id="Canvas" transform="translate(-7918 2783)">
<g id="logo_BW_long_w">
<path d="M 7918 -2783L 8647 -2783L 8647 -2634.28L 7918 -2634.28L 7918 -2783Z"/>
<g id="Group">
<g id="FINDUS">
<use xlink:href="#path0_fill" transform="translate(7918 -2783)" fill="#F2C94C"/>
<use xlink:href="#path1_fill" transform="translate(7918 -2783)" fill="#FFFFFF"/>
</g>
</g>
<g id=".space">
<use xlink:href="#path2_fill" transform="translate(8396.23 -2680.76)" fill="#F2C94C"/>
</g>
</g>
</g>
<defs>
<path id="path0_fill" d="M 439.245 33.2L 467.469 33.2C 468.525 33.2 469.437 33.584 470.205 34.352C 470.973 35.12 471.357 36.032 471.357 37.088L 471.357 94.976C 471.357 108.416 467.181 118.544 458.829 125.36C 450.477 132.08 439.101 135.44 424.701 135.44C 410.397 135.44 399.021 132.08 390.573 125.36C 382.221 118.64 378.045 108.512 378.045 94.976L 378.045 37.088C 378.045 36.032 378.429 35.12 379.197 34.352C 379.965 33.584 380.877 33.2 381.933 33.2L 410.157 33.2C 411.213 33.2 412.125 33.584 412.893 34.352C 413.661 35.12 414.045 36.032 414.045 37.088L 414.045 95.408C 414.045 102.8 417.597 106.496 424.701 106.496C 431.805 106.496 435.357 102.8 435.357 95.408L 435.357 37.088C 435.357 36.032 435.741 35.12 436.509 34.352C 437.277 33.584 438.189 33.2 439.245 33.2ZM 486.018 64.88C 486.018 55.088 490.05 47.12 498.114 40.976C 506.274 34.832 516.93 31.76 530.082 31.76C 543.33 31.76 554.13 34.976 562.482 41.408C 570.93 47.84 575.154 54.56 575.154 61.568C 575.154 62.432 574.818 63.2 574.146 63.872C 573.57 64.448 572.898 64.736 572.13 64.736L 543.33 64.736C 541.122 64.736 539.106 63.92 537.282 62.288C 535.458 60.656 533.01 59.84 529.938 59.84C 525.33 59.84 523.026 61.184 523.026 63.872C 523.026 65.312 524.13 66.512 526.338 67.472C 528.642 68.432 532.866 69.296 539.01 70.064C 553.314 71.888 563.49 75.248 569.538 80.144C 575.682 84.944 578.754 92.288 578.754 102.176C 578.754 111.968 574.242 119.984 565.218 126.224C 556.29 132.368 544.578 135.44 530.082 135.44C 515.586 135.44 504.21 132.464 495.954 126.512C 487.698 120.56 483.57 113.312 483.57 104.768C 483.57 103.904 483.858 103.184 484.434 102.608C 485.106 101.936 485.874 101.6 486.738 101.6L 514.098 101.6C 516.114 101.6 518.322 102.56 520.722 104.48C 523.218 106.4 526.626 107.36 530.946 107.36C 538.146 107.36 541.746 106.016 541.746 103.328C 541.746 101.6 540.45 100.304 537.858 99.44C 535.266 98.48 530.37 97.52 523.17 96.56C 498.402 93.296 486.018 82.736 486.018 64.88Z"/>
<path id="path1_fill" d="M 13.248 33.2L 85.824 33.2C 86.88 33.2 87.792 33.584 88.56 34.352C 89.328 35.12 89.712 36.032 89.712 37.088L 89.712 58.976C 89.712 60.032 89.328 60.944 88.56 61.712C 87.792 62.48 86.88 62.864 85.824 62.864L 44.64 62.864L 44.64 73.52L 82.944 73.52C 84 73.52 84.912 73.904 85.68 74.672C 86.448 75.44 86.832 76.352 86.832 77.408L 86.832 99.152C 86.832 100.208 86.448 101.12 85.68 101.888C 84.912 102.656 84 103.04 82.944 103.04L 44.64 103.04L 44.64 130.112C 44.64 131.168 44.256 132.08 43.488 132.848C 42.72 133.616 41.808 134 40.752 134L 13.248 134C 12.192 134 11.28 133.616 10.512 132.848C 9.744 132.08 9.36 131.168 9.36 130.112L 9.36 37.088C 9.36 36.032 9.744 35.12 10.512 34.352C 11.28 33.584 12.192 33.2 13.248 33.2ZM 138.108 134L 108.732 134C 107.676 134 106.764 133.616 105.996 132.848C 105.228 132.08 104.844 131.168 104.844 130.112L 104.844 37.088C 104.844 36.032 105.228 35.12 105.996 34.352C 106.764 33.584 107.676 33.2 108.732 33.2L 138.108 33.2C 139.164 33.2 140.076 33.584 140.844 34.352C 141.612 35.12 141.996 36.032 141.996 37.088L 141.996 130.112C 141.996 131.168 141.612 132.08 140.844 132.848C 140.076 133.616 139.164 134 138.108 134ZM 221.44 33.2L 247.505 33.2C 248.56 33.2 249.472 33.584 250.24 34.352C 251.008 35.12 251.393 36.032 251.393 37.088L 251.393 130.112C 251.393 131.168 251.008 132.08 250.24 132.848C 249.472 133.616 248.56 134 247.505 134L 224.752 134C 222.256 134 220.288 132.896 218.849 130.688L 194.512 93.968L 194.512 130.112C 194.512 131.168 194.129 132.08 193.361 132.848C 192.593 133.616 191.681 134 190.625 134L 164.56 134C 163.504 134 162.593 133.616 161.825 132.848C 161.056 132.08 160.673 131.168 160.673 130.112L 160.673 37.088C 160.673 36.032 161.056 35.12 161.825 34.352C 162.593 33.584 163.504 33.2 164.56 33.2L 187.312 33.2C 190 33.2 191.969 34.304 193.216 36.512L 217.553 76.4L 217.553 37.088C 217.553 36.032 217.936 35.12 218.704 34.352C 219.472 33.584 220.385 33.2 221.44 33.2ZM 273.967 33.2L 315.439 33.2C 329.455 33.2 340.975 36.704 349.999 43.712C 359.119 50.624 363.679 60.32 363.679 72.8L 363.679 94.256C 363.679 107.312 359.263 117.2 350.431 123.92C 341.599 130.64 329.983 134 315.583 134L 273.967 134C 272.911 134 271.999 133.616 271.231 132.848C 270.463 132.08 270.079 131.168 270.079 130.112L 270.079 37.088C 270.079 36.032 270.463 35.12 271.231 34.352C 271.999 33.584 272.911 33.2 273.967 33.2ZM 306.079 61.28L 306.079 105.92L 315.439 105.92C 318.703 105.92 321.295 104.96 323.215 103.04C 325.231 101.024 326.239 98.096 326.239 94.256L 326.239 72.8C 326.239 65.12 322.639 61.28 315.439 61.28L 306.079 61.28Z"/>
<path id="path2_fill" d="M 102.204 23.196L 109.686 23.196C 110.002 23.196 110.274 23.3107 110.503 23.54C 110.733 23.7693 110.847 24.0417 110.847 24.357L 110.847 31.839C 110.847 32.1543 110.733 32.4267 110.503 32.656C 110.274 32.8853 110.002 33 109.686 33L 102.204 33C 101.889 33 101.617 32.8853 101.387 32.656C 101.158 32.4267 101.043 32.1543 101.043 31.839L 101.043 24.357C 101.043 24.0417 101.158 23.7693 101.387 23.54C 101.617 23.3107 101.889 23.196 102.204 23.196ZM 127.474 26.808C 127.474 26.5213 127.402 26.292 127.259 26.12C 126.886 25.6613 125.51 25.217 123.131 24.787C 120.751 24.3283 118.816 23.54 117.326 22.422C 115.864 21.2753 115.133 19.6843 115.133 17.649C 115.133 15.6137 116.107 13.865 118.057 12.403C 120.006 10.941 122.629 10.21 125.926 10.21C 129.251 10.21 131.974 10.898 134.096 12.274C 136.217 13.65 137.278 15.0403 137.278 16.445C 137.278 16.7603 137.177 17.0327 136.977 17.262C 136.805 17.4913 136.59 17.606 136.332 17.606L 129.108 17.606C 128.678 17.606 128.147 17.3767 127.517 16.918C 126.886 16.4593 126.413 16.23 126.098 16.23C 125.438 16.23 125.109 16.4593 125.109 16.918C 125.109 17.2047 125.18 17.434 125.324 17.606C 125.696 18.036 127.259 18.4517 130.011 18.853C 132.763 19.2543 134.812 20.143 136.16 21.519C 137.536 22.8663 138.224 24.3713 138.224 26.034C 138.224 28.356 137.177 30.1763 135.085 31.495C 132.992 32.8137 130.025 33.473 126.184 33.473C 124.148 33.473 122.342 33.2437 120.766 32.785C 119.189 32.3263 117.985 31.753 117.154 31.065C 115.52 29.7177 114.703 28.4563 114.703 27.281C 114.703 26.9657 114.803 26.6933 115.004 26.464C 115.204 26.2347 115.448 26.12 115.735 26.12L 123.217 26.12C 123.618 26.12 124.134 26.3493 124.765 26.808C 125.424 27.238 126.04 27.453 126.614 27.453C 127.187 27.453 127.474 27.238 127.474 26.808ZM 166.626 20.143L 166.626 23.54C 166.626 26.7507 165.766 29.2017 164.046 30.893C 162.326 32.5843 160.219 33.43 157.725 33.43C 155.259 33.43 153.281 32.7563 151.791 31.409L 151.791 40.009C 151.791 40.3243 151.676 40.5967 151.447 40.826C 151.217 41.0553 150.945 41.17 150.63 41.17L 142.675 41.17C 142.359 41.17 142.087 41.0553 141.858 40.826C 141.628 40.5967 141.514 40.3243 141.514 40.009L 141.514 11.801C 141.514 11.4857 141.628 11.2133 141.858 10.984C 142.087 10.7547 142.359 10.64 142.675 10.64L 149.985 10.64C 150.3 10.64 150.572 10.7547 150.802 10.984C 151.031 11.2133 151.146 11.4857 151.146 11.801L 151.146 13.091C 152.636 11.1703 154.743 10.21 157.467 10.21C 160.19 10.21 162.397 11.027 164.089 12.661C 165.78 14.2663 166.626 16.7603 166.626 20.143ZM 151.791 20.401L 151.791 23.583C 151.877 25.0163 152.593 25.733 153.941 25.733C 155.374 25.733 156.091 24.9017 156.091 23.239L 156.091 20.401C 156.091 18.7383 155.374 17.907 153.941 17.907C 152.507 17.907 151.791 18.7383 151.791 20.401ZM 169.633 26.593C 169.633 22.723 172.772 20.2433 179.05 19.154L 183.608 18.423C 183.608 17.563 183.537 16.9897 183.393 16.703C 183.25 16.3877 182.906 16.23 182.361 16.23C 181.845 16.23 181.329 16.4593 180.813 16.918C 180.297 17.3767 179.81 17.606 179.351 17.606L 172.041 17.606C 171.411 17.606 171.095 17.305 171.095 16.703C 171.095 16.0723 171.31 15.413 171.74 14.725C 172.199 14.0083 172.844 13.306 173.675 12.618C 174.535 11.93 175.725 11.3567 177.244 10.898C 178.792 10.4393 180.512 10.21 182.404 10.21C 186.246 10.21 189.127 11.0127 191.047 12.618C 192.968 14.2233 193.928 16.5167 193.928 19.498L 193.928 31.839C 193.928 32.1543 193.814 32.4267 193.584 32.656C 193.355 32.8853 193.083 33 192.767 33L 185.242 33C 184.927 33 184.655 32.8853 184.425 32.656C 184.196 32.4267 184.081 32.1543 184.081 31.839L 184.081 30.635C 182.734 32.4983 180.77 33.43 178.19 33.43C 175.61 33.43 173.532 32.785 171.955 31.495C 170.407 30.1763 169.633 28.5423 169.633 26.593ZM 180.942 27.066C 182.806 27.066 183.737 25.948 183.737 23.712L 181.2 24.271C 179.939 24.5577 179.308 25.088 179.308 25.862C 179.308 26.206 179.452 26.4927 179.738 26.722C 180.025 26.9513 180.426 27.066 180.942 27.066ZM 207.883 20.315L 207.883 23.325C 207.883 24.2997 208.012 25.002 208.27 25.432C 208.528 25.862 208.93 26.077 209.474 26.077C 210.019 26.077 210.392 25.991 210.592 25.819C 210.793 25.6183 210.994 25.26 211.194 24.744C 211.424 24.1993 211.839 23.927 212.441 23.927L 220.826 23.927C 221.142 23.927 221.414 24.0417 221.643 24.271C 221.873 24.5003 221.987 24.8013 221.987 25.174C 221.987 25.5467 221.858 26.0483 221.6 26.679C 221.342 27.3097 220.898 28.0263 220.267 28.829C 219.637 29.6317 218.863 30.377 217.945 31.065C 217.028 31.7243 215.824 32.2833 214.333 32.742C 212.843 33.2007 211.194 33.43 209.388 33.43C 205.805 33.43 202.895 32.4983 200.659 30.635C 198.452 28.743 197.348 26.1343 197.348 22.809L 197.348 20.831C 197.348 17.5057 198.452 14.9113 200.659 13.048C 202.895 11.156 205.805 10.21 209.388 10.21C 211.51 10.21 213.43 10.5397 215.15 11.199C 216.87 11.8297 218.189 12.618 219.106 13.564C 220.052 14.4813 220.769 15.3843 221.256 16.273C 221.744 17.1617 221.987 17.8497 221.987 18.337C 221.987 18.7957 221.873 19.1397 221.643 19.369C 221.414 19.5983 221.142 19.713 220.826 19.713L 212.441 19.713C 211.897 19.713 211.481 19.4263 211.194 18.853C 210.793 17.993 210.263 17.563 209.603 17.563C 208.457 17.563 207.883 18.4803 207.883 20.315ZM 248.118 24.357L 235.304 24.357L 235.304 24.572C 235.304 26.3207 235.863 27.195 236.981 27.195C 237.297 27.195 237.684 26.9657 238.142 26.507C 238.601 26.0483 239.103 25.819 239.647 25.819L 247.774 25.819C 248.405 25.819 248.72 26.1343 248.72 26.765C 248.72 28.1697 247.66 29.6317 245.538 31.151C 243.446 32.6703 240.593 33.43 236.981 33.43C 233.398 33.43 230.46 32.4983 228.166 30.635C 225.902 28.743 224.769 26.1487 224.769 22.852L 224.769 20.788C 224.769 17.6633 225.93 15.1263 228.252 13.177C 230.574 11.199 233.613 10.21 237.368 10.21C 241.152 10.21 244.076 11.3137 246.14 13.521C 248.233 15.7283 249.279 18.5233 249.279 21.906L 249.279 23.196C 249.279 23.5113 249.165 23.7837 248.935 24.013C 248.706 24.2423 248.434 24.357 248.118 24.357ZM 238.744 18.81C 238.744 17.09 238.171 16.23 237.024 16.23C 235.878 16.23 235.304 17.09 235.304 18.81L 235.304 18.982L 238.744 18.982L 238.744 18.81Z"/>
</defs>
</svg>
